<svg xmlns="http://www.w3.org/2000/svg" viewBox="0 0 256 256">
  <defs><linearGradient id="body" x1="42" y1="37" x2="216" y2="214"><stop stop-color="#58cc02"/><stop offset="1" stop-color="#34d399"/></linearGradient></defs>
  <circle cx="128" cy="128" r="118" fill="#07111f"/>
  <rect x="54" y="68" width="148" height="116" rx="36" fill="url(#body)"/>
  <rect x="78" y="96" width="100" height="58" rx="21" fill="#fff"/>
  <path d="M96 124c6-10 18-10 24 0M136 124c6-10 18-10 24 0" fill="none" stroke="#07111f" stroke-width="7" stroke-linecap="round"/>
  <path d="M106 144c14 16 30 16 44 0" fill="none" stroke="#07111f" stroke-width="8" stroke-linecap="round"/>
  <path d="M128 68V42" stroke="#58cc02" stroke-width="12" stroke-linecap="round"/><circle cx="128" cy="34" r="12" fill="#ffc800"/>
  <path d="M58 128 28 104M198 128l30-24" stroke="#ffc800" stroke-width="14" stroke-linecap="round"/>
  <path d="M86 190l-20 24M170 190l20 24" stroke="#34d399" stroke-width="14" stroke-linecap="round"/>
</svg>